<?xml version="1.0" encoding="iso-8859-1"?>
<!-- Uploaded to: SVG Repo, www.svgrepo.com, Generator: SVG Repo Mixer Tools -->
<!DOCTYPE svg PUBLIC "-//W3C//DTD SVG 1.1//EN" "http://www.w3.org/Graphics/SVG/1.1/DTD/svg11.dtd">
<svg fill="#000000" height="800px" width="800px" version="1.1" id="Capa_1" xmlns="http://www.w3.org/2000/svg" xmlns:xlink="http://www.w3.org/1999/xlink" 
	 viewBox="0 0 364.26 364.26" xml:space="preserve">
<g>
	<path d="M206.131,307.26h-49c-4.411,0-8,3.589-8,8v41c0,4.411,3.589,8,8,8h49c4.411,0,8-3.589,8-8v-41
		C214.131,310.849,210.542,307.26,206.131,307.26z"/>
	<path d="M328.267,270.141l-54.862-61.881h20.3c4.835,0,6.594-2.811,7.125-4.02c0.529-1.202,1.411-4.379-1.812-7.896l-56.725-62.084
		h22.268c4.896,0,6.616-2.813,7.127-4.021c0.508-1.2,1.329-4.364-2.027-7.825L216.896,68.26h18.521c3.344,0,6-1.556,7.103-4.161
		c1.11-2.622,0.365-5.64-1.991-8.07L189.202,3.021C187.34,1.102,184.749,0,182.092,0c-2.671,0-5.168,1.059-7.036,2.984
		l-51.322,53.063c-2.356,2.431-3.101,5.443-1.994,8.059c1.102,2.602,3.757,4.154,7.104,4.154h18.632l-52.883,54.243
		c-3.337,3.44-2.527,6.577-2.024,7.766c0.631,1.49,2.396,3.991,7.132,3.991h22.323l-56.777,61.963
		c-3.242,3.54-2.344,6.758-1.807,7.978c0.537,1.22,2.306,4.059,7.117,4.059h20.271l-54.828,61.804
		c-2.217,2.493-2.85,5.522-1.692,8.101c1.151,2.564,3.808,4.095,7.106,4.095h281.435c3.309,0,5.967-1.521,7.111-4.07
		C331.107,275.634,330.473,272.623,328.267,270.141z M135.761,237.189c-13.459,0-24.37-10.911-24.37-24.37s10.911-24.37,24.37-24.37
		s24.37,10.911,24.37,24.37S149.22,237.189,135.761,237.189z M167.055,114.189c-9.431,0-17.076-7.645-17.076-17.076
		s7.645-17.076,17.076-17.076s17.076,7.645,17.076,17.076S176.486,114.189,167.055,114.189z M200.102,158.653
		c0-10.213,8.279-18.492,18.492-18.492c10.213,0,18.492,8.279,18.492,18.492s-8.279,18.492-18.492,18.492
		C208.382,177.145,200.102,168.865,200.102,158.653z M248.761,261.189c-11.25,0-20.37-9.12-20.37-20.37
		c0-11.25,9.12-20.37,20.37-20.37c11.25,0,20.37,9.12,20.37,20.37C269.131,252.069,260.011,261.189,248.761,261.189z"/>
</g>
</svg>