<?xml version="1.0" standalone="no"?>
<!DOCTYPE svg PUBLIC "-//W3C//DTD SVG 20010904//EN"
 "http://www.w3.org/TR/2001/REC-SVG-20010904/DTD/svg10.dtd">
<svg version="1.0" xmlns="http://www.w3.org/2000/svg"
 width="46.000000pt" height="42.000000pt" viewBox="0 0 46.000000 42.000000"
 preserveAspectRatio="xMidYMid meet">

<g transform="translate(0.000000,42.000000) scale(0.100000,-0.100000)"
fill="#000000" stroke="none">
<path d="M240 316 c0 -9 -16 -16 -43 -20 -40 -6 -45 -10 -71 -62 -25 -53 -26
-58 -11 -80 19 -29 65 -32 88 -6 22 24 21 40 -3 77 -21 32 -13 55 21 55 17 0
19 -9 19 -105 l0 -105 -36 0 c-21 0 -33 -4 -29 -10 3 -5 42 -10 86 -10 46 0
79 4 79 10 0 6 -16 10 -35 10 l-35 0 0 95 c0 52 -1 98 -2 103 -2 4 7 8 20 10
31 5 37 -19 17 -62 -16 -33 -16 -38 -1 -61 11 -17 26 -25 44 -25 56 0 68 47
29 115 -18 32 -31 42 -62 50 -22 5 -44 15 -48 22 -11 17 -27 17 -27 -1z m-60
-95 c23 -44 8 -78 -30 -66 -23 7 -25 23 -8 60 13 30 24 32 38 6z m190 -11 c15
-36 7 -60 -18 -60 -35 0 -46 25 -26 60 23 37 28 38 44 0z"/>
</g>
</svg>
