<svg viewBox="0 0 20 19" fill="none" xmlns="http://www.w3.org/2000/svg">
<g clip-path="url(#clip0_808_17)">
<path d="M7.53528 16.8889C8.19112 16.8889 8.72278 16.3572 8.72278 15.7014C8.72278 15.0455 8.19112 14.5139 7.53528 14.5139C6.87944 14.5139 6.34778 15.0455 6.34778 15.7014C6.34778 16.3572 6.87944 16.8889 7.53528 16.8889Z" fill="black"/>
<path d="M14.75 16.8889C15.4058 16.8889 15.9375 16.3572 15.9375 15.7014C15.9375 15.0455 15.4058 14.5139 14.75 14.5139C14.0942 14.5139 13.5625 15.0455 13.5625 15.7014C13.5625 16.3572 14.0942 16.8889 14.75 16.8889Z" fill="black"/>
<path d="M12.412 3.69444C12.3879 3.51953 12.3756 3.34322 12.375 3.16666C12.3756 2.99011 12.3879 2.81379 12.412 2.63889H6.56421L6.90726 3.69444H12.412Z" fill="black"/>
<path d="M16.3334 7.12499H16.1117L15.452 10.0278H7.53533L5.12338 2.39083C5.09729 2.30979 5.05199 2.23627 4.99133 2.17653C4.93068 2.1168 4.85647 2.07262 4.77505 2.04777L2.61116 1.38277C2.54462 1.36233 2.47471 1.35519 2.40541 1.36176C2.33612 1.36833 2.2688 1.38849 2.20729 1.42108C2.08307 1.4869 1.99009 1.59937 1.9488 1.73374C1.90751 1.86812 1.92128 2.0134 1.9871 2.13761C2.05292 2.26183 2.16539 2.35481 2.29977 2.39611L4.19449 2.97666L6.61699 10.6294L5.75144 11.3367L5.68283 11.4053C5.46873 11.652 5.34737 11.9657 5.33966 12.2923C5.33196 12.6188 5.43838 12.9379 5.6406 13.1944C5.78445 13.3694 5.96725 13.5082 6.17437 13.5999C6.38148 13.6915 6.60717 13.7334 6.83338 13.7222H15.642C15.782 13.7222 15.9162 13.6666 16.0152 13.5676C16.1142 13.4687 16.1698 13.3344 16.1698 13.1944C16.1698 13.0545 16.1142 12.9202 16.0152 12.8212C15.9162 12.7223 15.782 12.6667 15.642 12.6667H6.74894C6.68816 12.6646 6.62895 12.6469 6.57702 12.6152C6.52509 12.5836 6.48219 12.5391 6.45248 12.486C6.42277 12.433 6.40724 12.3732 6.4074 12.3123C6.40756 12.2515 6.42339 12.1918 6.45338 12.1389L7.72533 11.0833H15.8742C15.9962 11.0863 16.1155 11.0469 16.2117 10.9719C16.3079 10.8968 16.3752 10.7907 16.402 10.6717L17.2306 7.02472C16.9363 7.09221 16.6353 7.12585 16.3334 7.12499Z" fill="black"/>
<path d="M16.3333 5.80555C17.7908 5.80555 18.9722 4.62408 18.9722 3.16666C18.9722 1.70924 17.7908 0.527771 16.3333 0.527771C14.8759 0.527771 13.6945 1.70924 13.6945 3.16666C13.6945 4.62408 14.8759 5.80555 16.3333 5.80555Z" fill="black"/>
</g>
<defs>
<clipPath id="clip0_808_17">
<rect width="19" height="19" fill="white" transform="translate(0.5)"/>
</clipPath>
</defs>
</svg>
