<svg width="151" height="48" viewBox="0 0 151 48" fill="none" xmlns="http://www.w3.org/2000/svg">
<g clip-path="url(#clip0_74_3166)">
<path d="M79.5773 11.9043C79.5773 13.598 78.2184 14.9623 76.5314 14.9623C74.8444 14.9623 73.4855 13.598 73.4855 11.9043C73.4855 10.2106 74.7976 8.84621 76.5314 8.84621C78.2653 8.89326 79.5773 10.2576 79.5773 11.9043ZM67.0188 18.0674C67.0188 18.3497 67.0188 18.8202 67.0188 18.8202C67.0188 18.8202 65.5661 16.9383 62.4733 16.9383C57.3655 16.9383 53.3824 20.8432 53.3824 26.2536C53.3824 31.617 57.3187 35.5689 62.4733 35.5689C65.613 35.5689 67.0188 33.64 67.0188 33.64V34.4398C67.0188 34.8162 67.2999 35.0985 67.6748 35.0985H71.4705V17.4088C71.4705 17.4088 68.0028 17.4088 67.6748 17.4088C67.2999 17.4088 67.0188 17.7381 67.0188 18.0674ZM67.0188 29.4058C66.3159 30.4408 64.9101 31.3347 63.2231 31.3347C60.224 31.3347 57.9279 29.4528 57.9279 26.2536C57.9279 23.0544 60.224 21.1725 63.2231 21.1725C64.8632 21.1725 66.3627 22.1135 67.0188 23.1015V29.4058ZM74.2821 17.4088H78.7807V35.0985H74.2821V17.4088ZM141.48 16.9383C138.387 16.9383 136.934 18.8202 136.934 18.8202V8.89326H132.436V35.0985C132.436 35.0985 135.903 35.0985 136.232 35.0985C136.606 35.0985 136.888 34.7691 136.888 34.4398V33.64C136.888 33.64 138.34 35.5689 141.433 35.5689C146.541 35.5689 150.524 31.617 150.524 26.2536C150.524 20.8903 146.541 16.9383 141.48 16.9383ZM140.73 31.2877C138.996 31.2877 137.637 30.3938 136.934 29.3587V23.0544C137.637 22.1135 139.137 21.1255 140.73 21.1255C143.729 21.1255 146.025 23.0074 146.025 26.2066C146.025 29.4058 143.729 31.2877 140.73 31.2877ZM130.093 24.607V35.1455H125.594V25.1245C125.594 22.2076 124.657 21.0314 122.127 21.0314C120.768 21.0314 119.362 21.7371 118.471 22.7721V35.0985H113.973V17.4088H117.534C117.909 17.4088 118.19 17.7381 118.19 18.0674V18.8202C119.502 17.4558 121.236 16.9383 122.97 16.9383C124.938 16.9383 126.578 17.5029 127.89 18.632C129.484 19.9493 130.093 21.643 130.093 24.607ZM103.054 16.9383C99.9616 16.9383 98.5089 18.8202 98.5089 18.8202V8.89326H94.0103V35.0985C94.0103 35.0985 97.478 35.0985 97.806 35.0985C98.1809 35.0985 98.4621 34.7691 98.4621 34.4398V33.64C98.4621 33.64 99.9147 35.5689 103.008 35.5689C108.115 35.5689 112.098 31.617 112.098 26.2536C112.145 20.8903 108.162 16.9383 103.054 16.9383ZM102.305 31.2877C100.571 31.2877 99.2118 30.3938 98.5089 29.3587V23.0544C99.2118 22.1135 100.711 21.1255 102.305 21.1255C105.304 21.1255 107.6 23.0074 107.6 26.2066C107.6 29.4058 105.304 31.2877 102.305 31.2877ZM90.1209 16.9383C91.4799 16.9383 92.1828 17.1735 92.1828 17.1735V21.3607C92.1828 21.3607 88.434 20.0905 86.0909 22.7721V35.1455H81.5923V17.4088C81.5923 17.4088 85.06 17.4088 85.388 17.4088C85.7629 17.4088 86.0441 17.7381 86.0441 18.0674V18.8202C86.8876 17.8322 88.7151 16.9383 90.1209 16.9383ZM43.4011 33.4989C43.1668 32.9343 42.9325 32.3227 42.6982 31.8052C42.3234 30.9583 41.9485 30.1585 41.6205 29.4058L41.5736 29.3587C38.3402 22.3017 34.8726 15.1505 31.2175 8.09346L31.0769 7.81117C30.702 7.10547 30.3271 6.35272 29.9522 5.59996C29.4836 4.75312 29.015 3.85922 28.2653 3.01238C26.7657 1.13049 24.6101 0.095459 22.314 0.095459C19.971 0.095459 17.8623 1.13049 16.3159 2.91828C15.613 3.76513 15.0975 4.65902 14.6289 5.50587C14.254 6.25862 13.8791 7.01137 13.5042 7.71708L13.3637 7.99936C9.75541 15.0564 6.24089 22.2076 3.00752 29.2646L2.96066 29.3587C2.63264 30.1115 2.25776 30.9113 1.88287 31.7581C1.64857 32.2756 1.41427 32.8402 1.17997 33.4518C0.570785 35.1926 0.383343 36.8392 0.617645 38.5329C1.13311 42.0614 3.47613 45.0254 6.70949 46.3427C7.92786 46.8602 9.19309 47.0955 10.5052 47.0955C10.8801 47.0955 11.3487 47.0484 11.7235 47.0014C13.2699 46.8132 14.8632 46.2957 16.4096 45.4018C18.3309 44.3197 20.1584 42.7671 22.2203 40.5089C24.2821 42.7671 26.1565 44.3197 28.031 45.4018C29.5773 46.2957 31.1706 46.8132 32.717 47.0014C33.0919 47.0484 33.5605 47.0955 33.9354 47.0955C35.2474 47.0955 36.5595 46.8602 37.731 46.3427C41.0113 45.0254 43.3074 42.0144 43.8229 38.5329C44.1978 36.8862 44.0103 35.2396 43.4011 33.4989ZM22.2671 35.9453C19.7367 32.7461 18.0966 29.7351 17.5342 27.1946C17.2999 26.1125 17.2531 25.1715 17.3937 24.3247C17.4874 23.5719 17.7685 22.9133 18.1434 22.3487C19.0338 21.0784 20.5333 20.2786 22.2671 20.2786C24.001 20.2786 25.5474 21.0314 26.3908 22.3487C26.7657 22.9133 27.0469 23.5719 27.1406 24.3247C27.2812 25.1715 27.2343 26.1595 27 27.1946C26.4377 29.6881 24.7976 32.6991 22.2671 35.9453ZM40.9644 38.1565C40.6364 40.603 38.9963 42.7201 36.7001 43.661C35.5755 44.1315 34.3571 44.2726 33.1387 44.1315C31.9672 43.9904 30.7957 43.614 29.5773 42.9083C27.8904 41.9673 26.2034 40.5089 24.2353 38.3447C27.328 34.5339 29.2025 31.0524 29.9054 27.9473C30.2334 26.4889 30.2803 25.1715 30.1397 23.9483C29.9522 22.7721 29.5305 21.6901 28.8744 20.7491C27.4218 18.632 24.985 17.4088 22.2671 17.4088C19.5492 17.4088 17.1125 18.679 15.6598 20.7491C15.0038 21.6901 14.582 22.7721 14.3946 23.9483C14.2071 25.1715 14.254 26.5359 14.6289 27.9473C15.3318 31.0524 17.2531 34.5809 20.299 38.3918C18.3777 40.5559 16.6439 42.0144 14.9569 42.9553C13.7385 43.661 12.567 44.0374 11.3955 44.1785C10.1303 44.3197 8.91193 44.1315 7.83414 43.7081C5.53798 42.7671 3.89787 40.65 3.56985 38.2036C3.42927 37.0274 3.52299 35.8512 3.99159 34.5339C4.13217 34.0634 4.36647 33.593 4.60078 33.0284C4.9288 32.2756 5.30368 31.4758 5.67856 30.676L5.72542 30.5819C8.95879 23.5719 12.4265 16.4208 16.0347 9.45782L16.1753 9.17554C16.5502 8.46983 16.925 7.71708 17.2999 7.01137C17.6748 6.25862 18.0966 5.55292 18.612 4.9413C19.5961 3.81218 20.9082 3.20056 22.3608 3.20056C23.8135 3.20056 25.1256 3.81218 26.1097 4.9413C26.6251 5.55292 27.0469 6.25862 27.4218 7.01137C27.7967 7.71708 28.1715 8.46983 28.5464 9.17554L28.687 9.45782C32.2484 16.4678 35.716 23.619 38.9494 30.629V30.676C39.3243 31.4288 39.6523 32.2756 40.0272 33.0284C40.2615 33.593 40.4958 34.0634 40.6364 34.5339C41.0113 35.7571 41.1519 36.9333 40.9644 38.1565Z" fill="#B5B5B5"/>
</g>
<defs>
<clipPath id="clip0_74_3166">
<rect width="150" height="47" fill="white" transform="translate(0.523926 0.095459)"/>
</clipPath>
</defs>
</svg>
