<svg width="56" height="69" viewBox="0 0 56 69" fill="none" xmlns="http://www.w3.org/2000/svg">
<g clip-path="url(#clip0_74_3162)">
<path d="M53.6179 23.4688C49.1119 26.2688 46.3288 31.0688 46.3288 36.4021C46.3288 42.4021 49.9071 47.8688 55.3408 50.1355C54.2806 53.6021 52.6902 56.8021 50.7023 59.7355C47.7866 63.8688 44.7384 68.1355 40.2324 68.1355C35.7264 68.1355 34.4011 65.4688 29.0999 65.4688C23.9312 65.4688 22.0758 68.2688 17.8348 68.2688C13.5938 68.2688 10.6782 64.4021 7.36492 59.6021C2.99142 52.9355 0.47335 45.2021 0.34082 37.0688C0.34082 23.8688 8.82275 16.8021 17.3047 16.8021C21.8107 16.8021 25.5215 19.7355 28.3047 19.7355C30.9553 19.7355 35.1962 16.6688 40.2324 16.6688C45.5336 16.5355 50.5697 19.0688 53.6179 23.4688ZM37.8468 11.0688C40.0999 8.40213 41.2926 5.0688 41.4252 1.60213C41.4252 1.20213 41.4252 0.668799 41.2926 0.268799C37.4493 0.668799 33.8709 2.53547 31.3529 5.4688C29.0999 8.00213 27.7746 11.2021 27.642 14.6688C27.642 15.0688 27.642 15.4688 27.7746 15.8688C28.0396 15.8688 28.4372 16.0021 28.7023 16.0021C32.2806 15.7355 35.5938 13.8688 37.8468 11.0688Z" fill="#B5B5B5"/>
</g>
<defs>
<clipPath id="clip0_74_3162">
<rect width="55" height="68" fill="white" transform="translate(0.34082 0.268799)"/>
</clipPath>
</defs>
</svg>
