<svg width="126" height="24" viewBox="0 0 126 24" fill="none" xmlns="http://www.w3.org/2000/svg">
<path d="M9.11035 22.0349C9.24707 22.0349 9.38379 22.0462 9.52051 22.069C9.81673 22.1374 9.96484 22.4222 9.96484 22.9235H0.975586V22.0349C1.70475 22.0349 2.24023 21.9893 2.58203 21.8981C3.26562 21.6931 3.60742 21.1006 3.60742 20.1208V1.5954H0.975586V0.706726H7.36719V22.0349H9.11035ZM23.9785 23.2653C22.1784 23.2425 21.096 22.2057 20.7314 20.155C20.5719 20.5651 20.3555 20.9639 20.082 21.3513C19.0794 22.6273 17.6781 23.2653 15.8779 23.2653C15.2399 23.2653 14.6475 23.1742 14.1006 22.9919C12.3916 22.4222 11.5371 21.1576 11.5371 19.1979C11.5599 16.1673 14.5563 14.6065 20.5264 14.5153V12.3278C20.5264 11.8949 20.5036 11.4961 20.458 11.1315C20.2301 9.51369 19.4326 8.70477 18.0654 8.70477C17.7008 8.70477 17.3704 8.77313 17.0742 8.90985C16.6413 9.13772 16.2881 9.71877 16.0146 10.653C15.9235 10.9265 15.8551 11.1201 15.8096 11.2341C15.4906 12.0772 14.9209 12.4987 14.1006 12.4987C13.8955 12.4987 13.6904 12.4645 13.4854 12.3962C12.7562 12.1683 12.3916 11.667 12.3916 10.8923C12.3916 10.4821 12.5169 10.0947 12.7676 9.73016C13.6107 8.45412 15.4678 7.8161 18.3389 7.8161C18.9769 7.8161 19.5807 7.87307 20.1504 7.987C22.9303 8.53387 24.3203 10.277 24.3203 13.2165V20.3942C24.3203 21.488 24.5824 22.0576 25.1064 22.1032C25.79 22.0804 26.2002 21.2715 26.3369 19.6765L27.2256 19.7106C27.18 20.3487 27.1003 20.8955 26.9863 21.3513C26.599 22.6273 25.5964 23.2653 23.9785 23.2653ZM17.4502 21.8298C17.7236 21.8298 18.0199 21.7614 18.3389 21.6247C19.4098 21.1462 20.139 20.1322 20.5264 18.5827V15.4724C19.387 15.4951 18.4528 15.6091 17.7236 15.8141C16.1742 16.2243 15.3994 17.2041 15.3994 18.7536C15.3994 18.8675 15.3994 18.9815 15.3994 19.0954C15.4906 20.9183 16.1742 21.8298 17.4502 21.8298ZM36.6592 22.0349C36.7731 22.0349 36.8757 22.0462 36.9668 22.069C37.3086 22.1146 37.4795 22.3994 37.4795 22.9235H28.2168V22.0349C28.6725 22.0349 29.0485 22.0007 29.3447 21.9323C30.0283 21.75 30.3701 21.169 30.3701 20.1891V9.14911H28.2168V8.29462H33.8564L34.0615 11.5075C34.335 10.8467 34.7109 10.2543 35.1895 9.73016C36.2832 8.59084 37.5251 8.02118 38.915 8.02118C39.1885 8.02118 39.4619 8.05536 39.7354 8.12372C40.8063 8.39716 41.3418 9.08075 41.3418 10.1745C41.3418 10.4479 41.2848 10.71 41.1709 10.9606C40.8291 11.7582 40.248 12.1569 39.4277 12.1569C39.1999 12.1569 38.9834 12.1227 38.7783 12.0544C38.3454 11.9177 37.9352 11.4847 37.5479 10.7556C37.2516 10.2315 36.9554 9.96942 36.6592 9.96942C36.4769 9.96942 36.2604 10.0492 36.0098 10.2087C34.9388 10.9606 34.3236 12.4304 34.1641 14.6179V22.0349H36.6592ZM54.8086 23.2653C53.0085 23.2425 51.9261 22.2057 51.5615 20.155C51.402 20.5651 51.1855 20.9639 50.9121 21.3513C49.9095 22.6273 48.5081 23.2653 46.708 23.2653C46.07 23.2653 45.4775 23.1742 44.9307 22.9919C43.2217 22.4222 42.3672 21.1576 42.3672 19.1979C42.39 16.1673 45.3864 14.6065 51.3564 14.5153V12.3278C51.3564 11.8949 51.3337 11.4961 51.2881 11.1315C51.0602 9.51369 50.2627 8.70477 48.8955 8.70477C48.5309 8.70477 48.2005 8.77313 47.9043 8.90985C47.4714 9.13772 47.1182 9.71877 46.8447 10.653C46.7536 10.9265 46.6852 11.1201 46.6396 11.2341C46.3206 12.0772 45.751 12.4987 44.9307 12.4987C44.7256 12.4987 44.5205 12.4645 44.3154 12.3962C43.5863 12.1683 43.2217 11.667 43.2217 10.8923C43.2217 10.4821 43.347 10.0947 43.5977 9.73016C44.4408 8.45412 46.2979 7.8161 49.1689 7.8161C49.807 7.8161 50.4108 7.87307 50.9805 7.987C53.7604 8.53387 55.1504 10.277 55.1504 13.2165V20.3942C55.1504 21.488 55.4124 22.0576 55.9365 22.1032C56.6201 22.0804 57.0303 21.2715 57.167 19.6765L58.0557 19.7106C58.0101 20.3487 57.9303 20.8955 57.8164 21.3513C57.429 22.6273 56.4264 23.2653 54.8086 23.2653ZM48.2803 21.8298C48.5537 21.8298 48.8499 21.7614 49.1689 21.6247C50.2399 21.1462 50.9691 20.1322 51.3564 18.5827V15.4724C50.2171 15.4951 49.2829 15.6091 48.5537 15.8141C47.0042 16.2243 46.2295 17.2041 46.2295 18.7536C46.2295 18.8675 46.2295 18.9815 46.2295 19.0954C46.3206 20.9183 47.0042 21.8298 48.2803 21.8298Z" fill="#007F51"/>
<path d="M59.3545 15.6432C59.3545 13.5925 59.9242 11.8721 61.0635 10.4821C62.499 8.70477 64.4928 7.8161 67.0449 7.8161C68.6628 7.8161 70.0527 8.1579 71.2148 8.84149C72.4681 9.59344 73.0947 10.4821 73.0947 11.5075C73.0947 11.667 73.0719 11.8379 73.0264 12.0202C72.7757 12.8177 72.1377 13.2165 71.1123 13.2165C70.6566 13.1937 70.2806 13.0912 69.9844 12.9089C69.597 12.6354 69.3236 11.9974 69.1641 10.9948C69.1185 10.5847 69.0729 10.277 69.0273 10.072C68.7767 9.13772 68.1159 8.67059 67.0449 8.67059C66.7943 8.67059 66.5322 8.69338 66.2588 8.73895C64.4131 9.1719 63.4902 11.4733 63.4902 15.6432C63.513 20.0182 64.8688 22.2285 67.5576 22.2741C68.0361 22.2741 68.4919 22.2171 68.9248 22.1032C70.5882 21.7158 71.7731 20.7702 72.4795 19.2663L73.3682 19.5056C73.1631 20.0524 72.8669 20.5537 72.4795 21.0095C71.2262 22.5134 69.4147 23.2653 67.0449 23.2653C65.4727 23.2653 64.0827 22.9349 62.875 22.2741C60.528 20.9753 59.3545 18.765 59.3545 15.6432ZM78.8027 15.5407C78.8027 17.1585 78.9167 18.4574 79.1445 19.4372C79.6003 21.3968 80.6826 22.3766 82.3916 22.3766C82.9613 22.3766 83.474 22.2627 83.9297 22.0349C85.3197 21.2829 86.0146 19.0726 86.0146 15.404C86.0146 13.8545 85.9007 12.6013 85.6729 11.6442C85.2171 9.68459 84.1234 8.70477 82.3916 8.70477C81.7308 8.70477 81.1497 8.85288 80.6484 9.14911C79.418 9.94663 78.8027 12.0772 78.8027 15.5407ZM82.5283 7.8161C84.3512 7.8161 85.9235 8.30601 87.2451 9.28583C89.1592 10.6986 90.1162 12.738 90.1162 15.404C90.1162 17.3864 89.5238 19.0954 88.3389 20.5309C86.835 22.3539 84.8184 23.2653 82.2891 23.2653C80.4434 23.2653 78.8369 22.7184 77.4697 21.6247C75.6012 20.1208 74.667 18.0472 74.667 15.404C74.667 13.4899 75.2367 11.8493 76.376 10.4821C77.8799 8.70477 79.9307 7.8161 82.5283 7.8161ZM104.164 22.9235L103.754 19.6081C103.686 19.7904 103.594 19.9841 103.48 20.1891C102.432 22.2399 100.792 23.2653 98.5586 23.2653C97.3053 23.2653 96.166 22.9007 95.1406 22.1716C93.2949 20.8272 92.3721 18.7422 92.3721 15.9167C92.3721 13.8203 92.9076 12.0316 93.9785 10.5505C95.3229 8.72756 97.123 7.8161 99.3789 7.8161C101.065 7.8161 102.489 8.35158 103.651 9.42255V1.5954H100.507V0.706726H107.445V22.0349H109.052C109.234 22.0349 109.382 22.0462 109.496 22.069C109.77 22.1374 109.906 22.4222 109.906 22.9235H104.164ZM96.5078 15.5065C96.5078 16.4408 96.5762 17.2953 96.7129 18.07C97.1686 20.5309 98.2396 21.7614 99.9258 21.7614C100.541 21.7614 101.099 21.5791 101.601 21.2145C103.013 20.1664 103.72 18.0472 103.72 14.8571C103.72 13.7634 103.617 12.7949 103.412 11.9518C102.888 9.87828 101.84 8.84149 100.268 8.84149C99.7435 8.84149 99.2422 8.97821 98.7637 9.25165C97.2598 10.1403 96.5078 12.2253 96.5078 15.5065ZM119.135 8.70477C118.884 8.70477 118.622 8.73895 118.349 8.80731C116.731 9.30861 115.876 11.1771 115.785 14.4128L118.417 14.5153C119.374 14.5381 120.103 14.4811 120.604 14.3444C121.379 14.071 121.767 13.3988 121.767 12.3278C121.767 11.9405 121.732 11.5645 121.664 11.1999C121.391 9.53648 120.548 8.70477 119.135 8.70477ZM125.39 19.4714C125.253 19.8132 125.082 20.155 124.877 20.4968C123.715 22.3425 121.835 23.2653 119.237 23.2653C117.711 23.2653 116.332 22.9235 115.102 22.2399C112.8 20.8955 111.649 18.6625 111.649 15.5407C111.649 13.6266 112.139 11.9974 113.119 10.653C114.509 8.76174 116.514 7.8161 119.135 7.8161C120.57 7.8161 121.858 8.08954 122.997 8.63641C124.82 9.54787 125.731 10.9037 125.731 12.7038C125.731 13.2051 125.618 13.638 125.39 14.0026C124.706 15.0508 122.655 15.5407 119.237 15.4724L115.785 15.404C115.785 15.4268 115.785 15.4496 115.785 15.4724C115.899 20.0069 117.289 22.2741 119.955 22.2741C120.456 22.2741 120.946 22.1944 121.425 22.0349C122.86 21.5791 123.909 20.6335 124.569 19.1979L125.39 19.4714Z" fill="black"/>
</svg>
