<svg width="151" height="46" viewBox="0 0 151 46" fill="none" xmlns="http://www.w3.org/2000/svg">
<g clip-path="url(#clip0_74_3168)">
<path d="M37.0956 20.0585C29.9534 15.8122 18.1726 15.4218 11.3545 17.4934C10.2596 17.8258 9.10186 17.2071 8.7701 16.111C8.43834 15.0144 9.05577 13.8561 10.1514 13.5229C17.9781 11.1443 30.9887 11.6039 39.2109 16.49C40.1959 17.0752 40.519 18.3484 39.9351 19.3329C39.3509 20.3187 38.0779 20.6437 37.0956 20.0585ZM36.8617 26.3476C36.3608 27.1617 35.2977 27.4168 34.4857 26.9172C28.5313 23.253 19.4515 22.1915 12.407 24.3322C11.4935 24.6086 10.5285 24.093 10.2512 23.1801C9.9758 22.2655 10.4911 21.3013 11.403 21.0233C19.4505 18.5786 29.4544 19.7627 36.2933 23.9701C37.1053 24.4707 37.3609 25.5356 36.8617 26.3476ZM34.1505 32.3876C33.7525 33.0412 32.9022 33.2461 32.2518 32.8478C27.0487 29.6643 20.4997 28.9451 12.7871 30.7089C12.0438 30.8795 11.3032 30.4131 11.1336 29.6692C10.9634 28.9252 11.4273 28.1839 12.1723 28.0141C20.6124 26.0824 27.8523 26.9138 33.6925 30.4864C34.3436 30.8845 34.5487 31.7361 34.1505 32.3876ZM23.9891 0.394001C11.7523 0.394001 1.83203 10.3248 1.83203 22.5752C1.83203 34.8267 11.7523 44.7572 23.9891 44.7572C36.2264 44.7572 46.1461 34.8267 46.1461 22.5752C46.1461 10.3248 36.2264 0.394001 23.9891 0.394001Z" fill="#B5B5B5"/>
<path d="M62.1139 20.8714C58.2883 19.9581 57.607 19.317 57.607 17.9704C57.607 16.6977 58.804 15.8416 60.5836 15.8416C62.3086 15.8416 64.0189 16.4919 65.8125 17.8306C65.8667 17.8711 65.9348 17.8872 66.0017 17.8766C66.0686 17.8666 66.1276 17.83 66.1671 17.7744L68.035 15.1384C68.1117 15.03 68.0908 14.8801 67.9874 14.7972C65.853 13.0826 63.4495 12.2491 60.6402 12.2491C56.5095 12.2491 53.6242 14.7304 53.6242 18.2814C53.6242 22.0891 56.1132 23.4372 60.4142 24.4778C64.075 25.322 64.6928 26.0291 64.6928 27.2936C64.6928 28.6945 63.4434 29.5654 61.4329 29.5654C59.2001 29.5654 57.3784 28.8124 55.3408 27.0459C55.2903 27.0025 55.221 26.9824 55.157 26.986C55.0898 26.9916 55.0281 27.0228 54.9852 27.0745L52.8908 29.5699C52.803 29.6735 52.8141 29.8281 52.9154 29.9176C55.2863 32.0364 58.2018 33.1558 61.3482 33.1558C65.7993 33.1558 68.6756 30.7208 68.6756 26.9524C68.6756 23.7676 66.7748 22.0062 62.1139 20.8714Z" fill="#B5B5B5"/>
<path d="M81.9769 25.1398C81.9769 27.8292 80.3222 29.7057 77.9529 29.7057C75.6105 29.7057 73.8436 27.7439 73.8436 25.1398C73.8436 22.5362 75.6105 20.574 77.9529 20.574C80.2841 20.574 81.9769 22.4937 81.9769 25.1398ZM78.7458 17.0942C76.8165 17.0942 75.234 17.8549 73.9291 19.4137V17.6592C73.9291 17.5207 73.8169 17.4078 73.6785 17.4078H70.2532C70.1148 17.4078 70.0029 17.5207 70.0029 17.6592V37.1547C70.0029 37.2932 70.1148 37.406 70.2532 37.406H73.6785C73.8169 37.406 73.9291 37.2932 73.9291 37.1547V31.0011C75.2343 32.4674 76.817 33.1836 78.7458 33.1836C82.3306 33.1836 85.9597 30.4209 85.9597 25.1398C85.9597 19.8576 82.3306 17.0942 78.7458 17.0942Z" fill="#B5B5B5"/>
<path d="M95.2619 29.7339C92.8063 29.7339 90.955 27.7587 90.955 25.1398C90.955 22.51 92.7423 20.6015 95.2053 20.6015C97.6767 20.6015 99.5404 22.5766 99.5404 25.1973C99.5404 27.8268 97.741 29.7339 95.2619 29.7339ZM95.2619 17.0942C90.6452 17.0942 87.0283 20.6532 87.0283 25.1973C87.0283 29.692 90.6203 33.2136 95.2053 33.2136C99.8384 33.2136 103.466 29.6667 103.466 25.1398C103.466 20.6282 99.8632 17.0942 95.2619 17.0942Z" fill="#B5B5B5"/>
<path d="M113.325 17.4079H109.555V13.5497C109.555 13.4111 109.444 13.2986 109.305 13.2986H105.88C105.742 13.2986 105.629 13.4111 105.629 13.5497V17.4079H103.982C103.844 17.4079 103.732 17.5207 103.732 17.6592V20.6064C103.732 20.7449 103.844 20.8577 103.982 20.8577H105.629V28.4839C105.629 31.5658 107.161 33.1283 110.183 33.1283C111.412 33.1283 112.431 32.8743 113.392 32.3289C113.47 32.2852 113.519 32.201 113.519 32.1114V29.3049C113.519 29.2182 113.473 29.1366 113.399 29.0911C113.325 29.0442 113.232 29.0419 113.156 29.0797C112.496 29.412 111.858 29.5655 111.145 29.5655C110.046 29.5655 109.555 29.0662 109.555 27.9465V20.8577H113.325C113.463 20.8577 113.575 20.7449 113.575 20.6064V17.6592C113.575 17.5207 113.463 17.4079 113.325 17.4079Z" fill="#B5B5B5"/>
<path d="M126.458 17.4229V16.949C126.458 15.555 126.992 14.9333 128.189 14.9333C128.904 14.9333 129.477 15.0753 130.12 15.2899C130.199 15.3148 130.281 15.3023 130.346 15.2549C130.412 15.2075 130.449 15.1315 130.449 15.0509V12.1611C130.449 12.0507 130.378 11.9529 130.272 11.9206C129.593 11.7185 128.725 11.5109 127.425 11.5109C124.261 11.5109 122.588 13.2945 122.588 16.6672V17.393H120.943C120.805 17.393 120.691 17.5055 120.691 17.6441V20.6064C120.691 20.7448 120.805 20.8576 120.943 20.8576H122.588V32.6207C122.588 32.7593 122.7 32.8719 122.838 32.8719H126.264C126.402 32.8719 126.515 32.7593 126.515 32.6207V20.8576H129.713L134.612 32.6176C134.056 33.8532 133.509 34.0991 132.762 34.0991C132.159 34.0991 131.523 33.9186 130.874 33.5627C130.813 33.529 130.74 33.5235 130.674 33.5439C130.609 33.5672 130.554 33.6157 130.526 33.6795L129.365 36.2295C129.31 36.3499 129.357 36.4915 129.473 36.5539C130.685 37.2111 131.779 37.4916 133.131 37.4916C135.66 37.4916 137.059 36.3118 138.291 33.1386L144.234 17.7651C144.264 17.6878 144.255 17.6006 144.208 17.5318C144.16 17.464 144.085 17.4229 144.001 17.4229H140.435C140.329 17.4229 140.233 17.4907 140.198 17.5911L136.545 28.0373L132.544 17.5842C132.507 17.487 132.414 17.4229 132.31 17.4229H126.458Z" fill="#B5B5B5"/>
<path d="M118.844 17.4079H115.419C115.28 17.4079 115.168 17.5207 115.168 17.6593V32.6208C115.168 32.7594 115.28 32.8719 115.419 32.8719H118.844C118.982 32.8719 119.095 32.7594 119.095 32.6208V17.6593C119.095 17.5207 118.982 17.4079 118.844 17.4079Z" fill="#B5B5B5"/>
<path d="M117.149 10.5955C115.792 10.5955 114.691 11.6955 114.691 13.0538C114.691 14.4132 115.792 15.5143 117.149 15.5143C118.506 15.5143 119.606 14.4132 119.606 13.0538C119.606 11.6955 118.506 10.5955 117.149 10.5955Z" fill="#B5B5B5"/>
<path d="M147.299 18.8961H146.671V19.6974H147.299C147.612 19.6974 147.799 19.5439 147.799 19.2965C147.799 19.0359 147.612 18.8961 147.299 18.8961ZM147.706 20.0391L148.388 20.995H147.813L147.199 20.1183H146.671V20.995H146.19V18.4615H147.318C147.906 18.4615 148.293 18.7628 148.293 19.2696C148.293 19.6848 148.053 19.9387 147.706 20.0391ZM147.171 17.6187C145.937 17.6187 145.002 18.6011 145.002 19.8046C145.002 21.0074 145.93 21.9769 147.159 21.9769C148.393 21.9769 149.329 20.995 149.329 19.7909C149.329 18.5881 148.4 17.6187 147.171 17.6187ZM147.159 22.2183C145.803 22.2183 144.748 21.1282 144.748 19.8046C144.748 18.4809 145.817 17.3785 147.171 17.3785C148.527 17.3785 149.582 18.4684 149.582 19.7909C149.582 21.1147 148.514 22.2183 147.159 22.2183Z" fill="#B5B5B5"/>
</g>
<defs>
<clipPath id="clip0_74_3168">
<rect width="150" height="45.0397" fill="white" transform="translate(0.707031 0.0557861)"/>
</clipPath>
</defs>
</svg>
