<svg width="116" height="49" viewBox="0 0 116 49" fill="none" xmlns="http://www.w3.org/2000/svg">
<path fill-rule="evenodd" clip-rule="evenodd" d="M116 25.2113C116 16.9848 112.025 10.4935 104.429 10.4935C96.8009 10.4935 92.1855 16.9848 92.1855 25.147C92.1855 34.8196 97.6343 39.7041 105.455 39.7041C109.269 39.7041 112.153 38.8365 114.333 37.6153V31.1884C112.153 32.2809 109.653 32.9558 106.48 32.9558C103.371 32.9558 100.615 31.8632 100.262 28.0713H115.936C115.936 27.6535 116 25.9825 116 25.2113ZM100.166 22.1585C100.166 18.5272 102.378 17.0169 104.397 17.0169C106.352 17.0169 108.436 18.5272 108.436 22.1585H100.166Z" fill="#B5B5B5"/>
<path fill-rule="evenodd" clip-rule="evenodd" d="M79.814 10.4935C76.6729 10.4935 74.6537 11.9717 73.5319 13L73.1152 11.0077H66.064V48.4769L74.0768 46.7738L74.1088 37.6796C75.2627 38.5151 76.9614 39.7041 79.7819 39.7041C85.5191 39.7041 90.7435 35.0767 90.7435 24.8899C90.7114 15.5708 85.4229 10.4935 79.814 10.4935ZM77.8909 32.6344C75.9999 32.6344 74.8781 31.9596 74.1088 31.1241L74.0768 19.2021C74.9101 18.2702 76.064 17.6275 77.8909 17.6275C80.8076 17.6275 82.8268 20.9052 82.8268 25.1149C82.8268 29.4209 80.8396 32.6344 77.8909 32.6344Z" fill="#B5B5B5"/>
<path fill-rule="evenodd" clip-rule="evenodd" d="M55.0381 8.59752L63.083 6.86224V0.338867L55.0381 2.04201V8.59752Z" fill="#B5B5B5"/>
<path d="M63.083 11.0398H55.0381V39.1578H63.083V11.0398Z" fill="#B5B5B5"/>
<path fill-rule="evenodd" clip-rule="evenodd" d="M46.4164 13.4178L45.9035 11.0398H38.9805V39.1578H46.9933V20.1018C48.8843 17.6274 52.0894 18.0773 53.083 18.4308V11.0398C52.0574 10.6542 48.3074 9.94722 46.4164 13.4178Z" fill="#B5B5B5"/>
<path fill-rule="evenodd" clip-rule="evenodd" d="M30.3906 4.06653L22.5701 5.73754L22.5381 31.4775C22.5381 36.2335 26.0958 39.7362 30.8394 39.7362C33.4676 39.7362 35.3907 39.2542 36.4483 38.6757V32.1524C35.4227 32.5701 30.3586 34.0483 30.3586 29.2924V17.8845H36.4483V11.0398H30.3586L30.3906 4.06653Z" fill="#B5B5B5"/>
<path fill-rule="evenodd" clip-rule="evenodd" d="M8.72421 19.2021C8.72421 17.9488 9.74985 17.4668 11.4486 17.4668C13.8845 17.4668 16.9614 18.2059 19.3973 19.5234V11.9717C16.737 10.9113 14.1088 10.4935 11.4486 10.4935C4.94216 10.4935 0.615234 13.8998 0.615234 19.5877C0.615234 28.4569 12.7947 27.043 12.7947 30.867C12.7947 32.3452 11.5127 32.8272 9.7178 32.8272C7.05754 32.8272 3.66011 31.7347 0.967798 30.2565V37.9045C3.94857 39.1899 6.96139 39.7362 9.7178 39.7362C16.3845 39.7362 20.9678 36.4263 20.9678 30.6742C20.9357 21.098 8.72421 22.8012 8.72421 19.2021Z" fill="#B5B5B5"/>
</svg>
