<svg width="182" height="20" viewBox="0 0 182 20" fill="none" xmlns="http://www.w3.org/2000/svg">
<g clip-path="url(#clip0_74_3160)">
<path d="M0 0.323085C0.235076 1.23232 0.704544 2.06076 1.35963 2.72232C2.01471 3.38388 2.8315 3.85443 3.72515 4.08508H9.5417L9.83971 4.20451V19.1765H13.4691V4.22623L13.799 4.1068H19.6209C20.5116 3.86995 21.3252 3.39731 21.9793 2.73671C22.6334 2.0761 23.1049 1.25097 23.346 0.344799V0.306799H0V0.323085ZM126.98 0.30137H123.361V19.2199H139.932C140.718 18.9099 141.416 18.4084 141.967 17.7592C142.518 17.11 142.905 16.3329 143.094 15.4959H126.969L126.98 0.30137ZM99.1315 4.02537C101.058 3.48251 102.676 1.95166 103.064 0.290513L82.7887 0.323085V11.4788H99.3763V15.4037H86.3595C85.3672 15.6661 84.4408 16.1405 83.6417 16.7956C82.8426 17.4507 82.1891 18.2715 81.7244 19.2037H102.952V7.76566H86.3702V4.02537H99.1315ZM160.953 19.2091H164.55V11.5982H177.631V19.2091H181.223V7.79823L160.953 7.77651V19.2091ZM45.4202 4.0688H59.2564C60.1628 3.84636 60.992 3.37439 61.6536 2.70433C62.3151 2.03427 62.7837 1.19182 63.0082 0.268799L41.6684 0.268799C41.8951 1.19075 42.3644 2.03201 43.0256 2.70173C43.6868 3.37144 44.5148 3.84415 45.4202 4.0688ZM45.4202 11.5439H59.2564C60.1623 11.3204 60.9909 10.8481 61.6523 10.1782C62.3137 9.50828 62.7826 8.66643 63.0082 7.74394H41.6684C41.8962 8.66536 42.3658 9.50604 43.0268 10.1756C43.6879 10.8451 44.5153 11.3182 45.4202 11.5439ZM45.4202 19.2199H59.2564C60.1623 18.9964 60.9909 18.5241 61.6523 17.8542C62.3137 17.1843 62.7826 16.3424 63.0082 15.4199H41.6684C41.8956 16.3416 42.3651 17.1826 43.0262 17.8522C43.6873 18.5218 44.5151 18.9947 45.4202 19.2199ZM164.151 4.07966H177.988C178.895 3.85754 179.725 3.38578 180.387 2.71574C181.05 2.0457 181.519 1.20309 181.745 0.279656H160.399C160.625 1.20214 161.094 2.04399 161.755 2.71388C162.417 3.38377 163.245 3.85611 164.151 4.07966Z" fill="#B5B5B5"/>
</g>
<defs>
<clipPath id="clip0_74_3160">
<rect width="182" height="19" fill="white" transform="translate(0 0.268799)"/>
</clipPath>
</defs>
</svg>
