<svg width="64" height="64" viewBox="0 0 64 64" fill="none" xmlns="http://www.w3.org/2000/svg">
<path d="M55.2217 37.3082C55.5769 35.6819 55.7664 33.9955 55.7664 32.263C55.7664 19.2819 45.2435 8.75775 32.2611 8.75775C30.8915 8.75775 29.5501 8.87679 28.2425 9.10271C26.0725 7.73238 23.5578 7.00661 20.9913 7.00991C13.4643 7.00991 7.35999 13.1117 7.35999 20.6419C7.35999 23.1571 8.04415 25.5117 9.23455 27.5334C8.9175 29.0902 8.75798 30.6749 8.75839 32.2637C8.75839 45.2442 19.28 55.7677 32.2611 55.7677C33.7325 55.7677 35.1699 55.6301 36.5677 55.3741C38.5481 56.4373 40.7614 56.9926 43.0093 56.9901C50.5376 56.9901 56.6406 50.8902 56.6406 43.36C56.6429 41.26 56.1571 39.1883 55.2217 37.3082ZM44.3181 43.497C43.2294 45.0336 41.6224 46.2534 39.5424 47.1181C37.4797 47.977 35.0105 48.4115 32.1958 48.4115C28.8217 48.4115 25.991 47.815 23.7817 46.6438C22.2029 45.7888 20.9005 44.6355 19.9123 43.2096C18.9133 41.7702 18.4057 40.3405 18.4057 38.9626C18.4057 38.103 18.7373 37.3562 19.3875 36.745C20.0313 36.1389 20.8557 35.8304 21.8406 35.8304C22.6477 35.8304 23.3453 36.0736 23.9104 36.551C24.4512 37.0106 24.9158 37.6877 25.287 38.5658C25.7043 39.5181 26.1593 40.3245 26.6387 40.9594C27.0982 41.5667 27.7632 42.0819 28.6105 42.4819C29.4611 42.8857 30.6105 43.0912 32.0237 43.0912C33.9667 43.0912 35.5609 42.6758 36.7571 41.856C37.9289 41.0566 38.4979 40.0979 38.4979 38.9229C38.4979 37.9955 38.1997 37.2653 37.5885 36.6944C36.9497 36.0966 36.1069 35.6307 35.0822 35.312C34.0141 34.9786 32.5619 34.6195 30.7686 34.2432C28.3302 33.721 26.2585 33.1014 24.6086 32.4C22.9235 31.6832 21.5641 30.6886 20.5715 29.4451C19.5629 28.1805 19.0509 26.5958 19.0509 24.7334C19.0509 22.9581 19.5872 21.3587 20.647 19.977C21.6985 18.6054 23.2339 17.5405 25.2083 16.8096C27.1603 16.087 29.4809 15.7235 32.1049 15.7235C34.2041 15.7235 36.0499 15.9661 37.5897 16.4435C39.1392 16.9286 40.4448 17.577 41.472 18.3808C42.5037 19.1885 43.2742 20.0518 43.7549 20.9485C44.2445 21.8547 44.4921 22.7578 44.4921 23.6307C44.4921 24.4704 44.1677 25.232 43.527 25.8982C42.8832 26.567 42.0723 26.9056 41.1136 26.9056C40.2432 26.9056 39.5616 26.6944 39.0893 26.2765C38.6489 25.8874 38.192 25.2806 37.687 24.4083C37.1001 23.296 36.3923 22.4179 35.5782 21.7984C34.7878 21.1981 33.4669 20.8934 31.6544 20.8934C29.9673 20.8934 28.5971 21.2307 27.5814 21.8982C26.6003 22.5408 26.1248 23.2768 26.1248 24.1517C26.1248 24.6874 26.2777 25.1341 26.5926 25.5187C26.9286 25.9283 27.3977 26.2835 27.9949 26.5837C28.6125 26.8934 29.248 27.1411 29.8854 27.3165C30.5408 27.4989 31.6345 27.7677 33.1392 28.1139C35.0393 28.5242 36.7885 28.9805 38.3334 29.4752C39.8982 29.9763 41.2518 30.5946 42.3545 31.3126C43.4809 32.0442 44.3725 32.9869 45.0067 34.1107C45.6397 35.2403 45.9603 36.631 45.9603 38.2496C45.9603 40.1862 45.408 41.9514 44.3181 43.497Z" fill="black"/>
</svg>
