<svg width="62" height="62" viewBox="0 0 62 62" fill="none" xmlns="http://www.w3.org/2000/svg">
<path fill-rule="evenodd" clip-rule="evenodd" d="M30.9988 7.41705C17.6458 7.41705 6.82 18.2435 6.82 31.5983C6.82 42.2815 13.7466 51.3447 23.356 54.5402C24.5663 54.764 25.0065 54.0194 25.0065 53.3764C25.0065 52.8035 24.9854 51.2839 24.9748 49.264C18.2485 50.7265 16.8293 46.022 16.8293 46.022C15.7294 43.2289 14.1441 42.4861 14.1441 42.4861C11.9486 40.987 14.3108 41.0161 14.3108 41.0161C16.7375 41.1878 18.0147 43.5073 18.0147 43.5073C20.1711 47.2024 23.6747 46.133 25.0517 45.5179C25.2706 43.9524 25.8968 42.8891 26.5868 42.2834C21.2183 41.6733 15.5738 39.5988 15.5738 30.3335C15.5738 27.6929 16.5156 25.5341 18.0618 23.8433C17.8145 23.2345 16.983 20.7762 18.2993 17.4456C18.2993 17.4456 20.3292 16.7958 24.9494 19.9262C26.877 19.3874 28.9459 19.1183 31.0025 19.1103C33.0559 19.1189 35.1255 19.3874 37.0555 19.9262C41.6727 16.7958 43.6995 17.4456 43.6995 17.4456C45.0188 20.7762 44.188 23.2345 43.94 23.8433C45.49 25.5341 46.425 27.6929 46.425 30.3335C46.425 39.6205 40.7724 41.6665 35.3859 42.2629C36.2526 43.01 37.0264 44.4887 37.0264 46.7449C37.0264 49.9757 36.9973 52.5828 36.9973 53.3758C36.9973 54.0237 37.4319 54.777 38.6595 54.5371C48.2583 51.3348 55.18 42.2784 55.18 31.5983C55.18 18.2435 44.3542 7.41705 30.9988 7.41705Z" fill="black"/>
</svg>
