<svg width="72" height="72" viewBox="0 0 72 72" fill="none" xmlns="http://www.w3.org/2000/svg">
<path d="M46.1988 40.4863C43.8379 40.4863 43.0589 42.282 42.822 43.1158H49.1249C49.0658 42.6528 48.8808 41.8392 48.2918 41.2459C47.79 40.7426 47.088 40.4863 46.1988 40.4863ZM29.9966 43.8401H24.0264V48.9283H29.6705C30.677 48.9031 31.9241 48.5791 31.9241 46.4645C31.9241 43.9135 30.1939 43.8401 29.9966 43.8401Z" fill="black"/>
<path d="M56.9052 10.1326H15.1452C14.0667 10.1328 13.0168 10.4788 12.1495 11.1198C11.2821 11.7607 10.6431 12.6628 10.3262 13.6937V58.4107C10.5916 59.273 11.0831 60.0484 11.7498 60.6562C12.4165 61.264 13.234 61.682 14.117 61.8667H57.9326C58.7902 61.6868 59.5862 61.2866 60.2421 60.7056C60.8981 60.1246 61.3915 59.3828 61.6737 58.5533V13.5511C61.3354 12.5547 60.6936 11.6892 59.8384 11.0761C58.9832 10.463 57.9575 10.1331 56.9052 10.1326ZM41.233 32.0026C41.233 31.8031 41.3957 31.6411 41.5944 31.6411H50.5692C50.7665 31.6411 50.9299 31.8031 50.9299 32.0026V34.6817C50.9295 34.7772 50.8914 34.8688 50.8238 34.9363C50.7563 35.0039 50.6647 35.042 50.5692 35.0424H41.5944C41.4987 35.0424 41.4068 35.0044 41.3391 34.9368C41.2713 34.8692 41.2331 34.7774 41.233 34.6817V32.0026ZM37.4213 46.8626C37.4213 50.2826 35.6119 51.9322 34.0913 52.709C32.4346 53.5579 30.7174 53.6241 30.2292 53.6241H18.8366C18.7409 53.6234 18.6493 53.585 18.5816 53.5172C18.514 53.4494 18.4758 53.3577 18.4752 53.262V31.5144C18.4752 31.315 18.6394 31.1522 18.8366 31.1522H30.1558C34.1734 31.1522 36.6696 33.5095 36.6696 37.3061C36.6696 39.6576 35.5241 40.7858 34.5161 41.323C35.0764 41.5178 35.5808 41.8462 35.9856 42.2798C37.5653 43.9502 37.4299 46.7438 37.4213 46.8626ZM54.2002 46.535C54.1892 46.6221 54.1468 46.7022 54.0809 46.7602C54.015 46.8182 53.9301 46.85 53.8423 46.8497H42.9466C43.025 48.0442 43.4981 48.906 44.3527 49.415C45.1087 49.8636 45.9446 49.9126 46.2658 49.9126C46.3327 49.9126 46.3745 49.9097 46.3795 49.9082C47.6302 49.9082 48.5179 49.6325 49.0414 49.0882C49.5432 48.5654 49.5295 47.9743 49.5259 47.9491C49.5259 47.8498 49.559 47.754 49.6296 47.682C49.6632 47.6466 49.7036 47.6185 49.7484 47.5993C49.7932 47.5801 49.8415 47.5703 49.8902 47.5704H53.7156C53.9158 47.5704 54.0785 47.7324 54.0785 47.9326C54.0785 53.7869 47.8267 54.0835 46.5696 54.0835C46.3687 54.0835 46.2542 54.0763 46.2542 54.0763H46.2506C43.4282 54.0763 41.22 53.2534 39.7051 51.6319C37.3313 49.0874 37.548 45.5278 37.5588 45.378C37.5588 45.3139 37.5689 43.2043 38.6352 41.0638C39.6367 39.0672 41.7686 36.6854 46.2758 36.6854C48.8585 36.6854 50.8694 37.4789 52.2425 39.0427C54.769 41.9234 54.229 46.3478 54.2002 46.535Z" fill="black"/>
<path d="M31.1688 37.535C31.1688 35.6565 30.042 35.6349 29.9952 35.6349H24.0264V39.7634H29.6006C30.4294 39.7634 31.1688 39.5935 31.1688 37.535Z" fill="black"/>
</svg>
