<svg width="72" height="72" viewBox="0 0 72 72" fill="none" xmlns="http://www.w3.org/2000/svg">
<path fill-rule="evenodd" clip-rule="evenodd" d="M36 9.91153C21.6151 9.91153 9.91153 21.6151 9.91153 35.9993C9.91153 50.3849 21.6151 62.0878 36 62.0878C50.3849 62.0878 62.0885 50.3856 62.0885 36C62.0885 21.6151 50.3856 9.91153 36 9.91153ZM53.2491 21.942C56.4627 25.8586 58.2385 30.7575 58.2811 35.8236C57.546 35.6667 50.179 34.1741 42.7644 35.1058C42.1625 33.6246 41.5093 32.1647 40.806 30.7289C49.045 27.3636 52.7796 22.5785 53.2491 21.942ZM36 13.7499C41.6621 13.7499 46.8367 15.8739 50.7722 19.3644C50.3712 19.9361 47.0167 24.4447 39.0931 27.4147C35.442 20.7058 31.3942 15.1942 30.7786 14.3691C32.4885 13.9574 34.2412 13.7495 36 13.7499ZM26.527 15.8681C27.1138 16.673 31.0961 22.1919 34.7882 28.7547C24.3648 31.5231 15.1841 31.482 14.1876 31.4698C15.6319 24.5556 20.2918 18.8086 26.527 15.8681ZM13.716 36.0331C13.716 35.8056 13.7203 35.5788 13.7275 35.3527C14.7024 35.3729 25.5017 35.5119 36.6293 32.1819C37.2669 33.4253 37.8693 34.6865 38.4358 35.964C38.1413 36.0468 37.8482 36.1347 37.5574 36.229C26.0647 39.9435 19.949 50.0703 19.4443 50.9342C15.8861 46.9829 13.716 41.7571 13.716 36.0331ZM36 58.3186C31.0429 58.3236 26.227 56.6676 22.3214 53.6148C22.7232 52.7947 27.2355 44.0777 39.8038 39.6987L39.9514 39.649C43.0798 47.7785 44.3729 54.5926 44.7048 56.5488C41.952 57.7188 38.9912 58.3208 36 58.3186ZM48.4502 54.5069C48.2227 53.1511 47.0369 46.6279 44.1216 38.6187C51.1042 37.5012 57.2393 39.3307 58.0018 39.5705C57.0089 45.7719 53.4499 51.1265 48.4502 54.5069Z" fill="black"/>
</svg>
