<svg width="100" height="100" viewBox="0 0 100 100" fill="none" xmlns="http://www.w3.org/2000/svg">
<path d="M92.546 38.012C92.546 37.679 92.511 37.345 92.487 36.916H91.584C84.652 36.916 77.721 36.93 70.79 36.899C69.965 36.895 69.735 37.135 69.738 37.954C69.767 45.765 69.767 53.577 69.737 61.389C69.734 62.227 69.997 62.439 70.802 62.431C74.779 62.395 78.756 62.413 82.733 62.417C83.063 62.417 83.392 62.446 83.804 62.466C83.804 63.592 83.758 64.639 83.819 65.68C83.863 66.425 83.637 66.652 82.875 66.644C78.813 66.607 74.75 66.648 70.688 66.609C69.916 66.601 69.718 66.848 69.741 67.575C69.7908 69.0803 69.7902 70.5868 69.739 72.092C69.712 72.851 69.964 73.036 70.707 73.033C77.638 72.9992 84.5691 73.0018 91.5 73.041C92.414 73.047 92.565 72.748 92.562 71.93C92.541 60.623 92.549 49.317 92.546 38.012ZM82.958 56.034C81.7376 55.9968 80.5164 55.9962 79.296 56.032C78.691 56.048 78.442 55.872 78.446 55.216C78.472 51.497 78.45 47.778 78.477 44.059C78.479 43.805 78.742 43.338 78.896 43.332C80.504 43.278 82.115 43.3 83.805 43.3V45.529C83.805 48.738 83.787 51.946 83.819 55.154C83.826 55.821 83.631 56.058 82.958 56.034ZM66.026 36.899C59.124 36.928 52.221 36.929 45.319 36.898C44.505 36.894 44.265 37.113 44.268 37.938C44.298 45.749 44.298 53.56 44.268 61.372C44.265 62.182 44.471 62.441 45.307 62.433C49.311 62.392 53.317 62.445 57.321 62.392C58.222 62.38 58.463 62.67 58.389 63.505C58.3313 64.2418 58.3307 64.982 58.387 65.719C58.435 66.42 58.192 66.646 57.477 66.641C53.444 66.611 49.41 66.627 45.377 66.627H44.286C44.286 68.525 44.324 70.31 44.268 72.091C44.244 72.858 44.495 73.035 45.234 73.032C52.193 73.004 59.152 73.016 66.111 73.014C66.388 73.013 66.665 72.99 67.016 72.973C67.037 72.626 67.072 72.323 67.072 72.02C67.074 60.658 67.065 49.296 67.092 37.934C67.093 37.095 66.828 36.896 66.026 36.899ZM58.348 55.458C58.346 55.646 57.999 55.986 57.804 55.992C56.3857 56.0358 54.9663 56.0362 53.548 55.993C53.372 55.989 53.055 55.677 53.054 55.505C53.026 51.48 53.033 47.452 53.033 43.289C54.729 43.289 56.286 43.269 57.841 43.315C58.024 43.32 58.35 43.68 58.352 43.877C58.38 47.737 58.38 51.599 58.348 55.458ZM21.554 27.974V35.645C21.554 36.916 21.554 36.917 20.242 36.917C16.293 36.917 12.344 36.935 8.395 36.901C7.649 36.894 7.435 37.103 7.437 37.858C7.463 46.465 7.464 55.075 7.435 63.682C7.432 64.481 7.667 64.677 8.441 64.673C15.373 64.646 22.305 64.657 29.237 64.655C29.54 64.655 29.842 64.63 30.164 64.615V26.96H21.553L21.554 27.974ZM20.555 58.281C19.337 58.223 18.114 58.291 16.895 58.241C16.661 58.232 16.241 57.928 16.24 57.757C16.204 52.991 16.211 48.227 16.211 43.353H21.554V44.261C21.554 48.603 21.534 52.946 21.572 57.288C21.579 58.089 21.324 58.316 20.555 58.281ZM40.852 36.911C38.524 36.924 36.194 36.948 33.867 36.899C33.086 36.882 32.915 37.167 32.926 37.884C32.962 40.354 32.94 42.824 32.94 45.296C32.94 51.43 32.95 57.564 32.927 63.697C32.924 64.41 33.073 64.733 33.864 64.672C34.767 64.602 35.68 64.655 36.589 64.655H41.55C41.59 64.423 41.617 64.34 41.617 64.257C41.621 55.368 41.618 46.481 41.638 37.592C41.638 36.973 41.341 36.909 40.852 36.911ZM33.633 33.511C36.075 33.548 38.519 33.525 40.962 33.542C41.492 33.546 41.652 33.333 41.634 32.83C41.604 32.007 41.627 31.183 41.627 30.358V26.96H32.947C32.947 29.04 32.93 31.024 32.977 33.009C32.98 33.189 33.401 33.508 33.633 33.511Z" fill="black"/>
</svg>
