<svg width="52" height="52" viewBox="0 0 52 52" fill="none" xmlns="http://www.w3.org/2000/svg">
<path d="M48.0802 0.0799866H3.9068C1.79432 0.0799866 0.0800018 1.75399 0.0800018 3.81535V48.1796C0.0800018 50.2438 1.79432 51.92 3.9068 51.92H48.0802C50.1942 51.92 51.92 50.2438 51.92 48.1796V3.81535C51.92 1.75399 50.1942 0.0799866 48.0802 0.0799866ZM15.4549 44.2549H7.7624V19.5164H15.4549V44.2549ZM11.6086 16.1338C11.0231 16.1338 10.4433 16.0185 9.90243 15.7943C9.36152 15.5701 8.87008 15.2416 8.45619 14.8274C8.0423 14.4133 7.71408 13.9216 7.49027 13.3806C7.26646 12.8395 7.15146 12.2597 7.15184 11.6741C7.15184 10.4922 7.62136 9.35871 8.4571 8.52297C9.29285 7.68722 10.4264 7.21771 11.6083 7.21771C12.7902 7.21771 13.9237 7.68722 14.7595 8.52297C15.5952 9.35871 16.0647 10.4922 16.0647 11.6741C16.0647 12.8563 15.5954 13.9901 14.7598 14.8263C13.9242 15.6626 12.7908 16.1329 11.6086 16.1338ZM44.252 44.2549H36.5718V32.2251C36.5718 29.3552 36.5156 25.6652 32.575 25.6652C28.5733 25.6652 27.9634 28.7907 27.9634 32.017V44.2556H20.2774V19.5164H27.6538V22.8946H27.759C28.7857 20.9506 31.2942 18.8993 35.0353 18.8993C42.8156 18.8993 44.2527 24.0214 44.2527 30.685V44.2549H44.252Z" fill="black"/>
</svg>
